<?xml version="1.0" encoding="UTF-8" ?>
<!DOCTYPE svg PUBLIC "-//W3C//DTD SVG 1.1//EN" "http://www.w3.org/Graphics/SVG/1.1/DTD/svg11.dtd">
<svg width="519pt" height="255pt" viewBox="0 0 519 255" version="1.1" xmlns="http://www.w3.org/2000/svg">
<g id="#085e7fff">
<path fill="#085e7f" opacity="1.00" d=" M 243.00 4.75 C 261.37 1.89 280.62 3.03 298.03 9.85 C 324.01 19.36 345.60 39.14 358.99 63.18 C 367.92 79.53 374.01 97.79 374.87 116.50 C 365.62 84.83 339.86 58.89 308.71 48.38 C 297.57 44.32 285.71 42.94 273.92 42.50 C 251.81 42.66 229.76 49.68 211.92 62.83 C 195.43 75.11 182.78 92.42 176.31 111.95 C 169.67 131.89 169.61 153.92 175.82 173.97 C 181.86 193.08 193.52 210.25 208.87 223.11 C 222.08 233.42 237.35 241.55 253.89 244.80 C 271.08 248.58 289.21 248.00 306.15 243.16 C 288.58 250.96 268.94 255.00 249.77 252.30 C 225.60 249.95 202.70 238.46 185.39 221.57 C 160.18 197.16 146.41 161.97 146.89 127.02 C 147.02 97.92 156.88 68.84 175.13 46.09 C 191.84 24.80 216.26 9.47 243.00 4.75 Z" />
<path fill="#085e7f" opacity="1.00" d=" M 225.87 81.92 C 240.03 68.67 259.49 60.88 278.97 61.94 C 302.95 62.86 325.51 76.89 338.37 96.94 C 344.65 106.29 348.86 116.95 351.05 127.98 C 340.29 108.80 321.69 93.52 299.85 89.29 C 292.06 87.16 283.86 87.78 275.89 88.11 C 254.33 90.77 234.66 103.74 222.62 121.68 C 209.50 140.57 205.18 164.60 208.61 187.14 C 203.46 175.76 199.40 163.64 198.97 151.04 C 197.12 125.55 207.08 99.34 225.87 81.92 Z" />
</g>
<g id="#939498ff">
<path fill="#939498" opacity="1.00" d=" M 246.32 134.59 C 251.99 133.48 258.05 133.49 263.71 134.63 C 265.74 134.87 267.81 134.97 269.74 135.71 C 271.15 135.84 272.56 135.94 273.99 136.04 C 274.49 137.83 274.98 139.63 275.35 141.46 C 275.98 143.13 276.59 144.81 277.25 146.48 C 276.31 145.89 275.38 145.29 274.45 144.70 C 273.11 144.26 271.76 143.85 270.42 143.39 C 269.03 143.04 267.63 142.68 266.27 142.25 C 261.09 141.95 255.89 141.91 250.70 142.21 C 249.59 142.63 248.46 142.99 247.31 143.31 C 245.64 144.95 243.98 146.60 242.36 148.28 C 241.88 150.12 241.15 151.87 240.35 153.58 C 240.09 155.33 239.89 157.10 239.25 158.77 C 238.90 165.58 238.98 172.42 239.25 179.23 C 239.85 180.90 240.10 182.65 240.36 184.39 C 240.70 185.42 241.02 186.46 241.34 187.50 C 241.80 188.51 242.25 189.52 242.69 190.55 C 244.36 193.15 246.64 195.36 249.40 196.79 C 251.22 196.92 253.08 197.02 254.79 197.76 C 255.59 197.76 256.40 197.76 257.22 197.75 C 260.10 196.56 263.29 197.01 266.33 196.80 C 267.34 196.37 268.37 195.96 269.40 195.57 C 270.45 195.28 271.49 195.01 272.55 194.76 C 273.77 194.05 274.98 193.33 276.19 192.60 C 276.09 195.29 276.22 198.00 275.93 200.68 C 275.13 201.74 273.76 202.01 272.61 202.51 C 271.27 202.79 269.94 203.09 268.61 203.39 C 267.29 203.76 265.96 204.10 264.64 204.47 C 258.65 205.47 252.36 205.47 246.37 204.45 C 245.04 204.10 243.71 203.77 242.39 203.38 C 241.41 203.08 240.43 202.78 239.46 202.46 C 236.87 201.66 234.59 200.18 232.26 198.83 C 230.90 197.50 229.61 196.08 228.52 194.52 C 227.89 193.51 227.27 192.51 226.67 191.50 C 226.13 190.46 225.60 189.42 225.06 188.39 C 224.98 187.95 224.82 187.06 224.74 186.62 C 223.20 184.25 222.75 181.50 222.65 178.72 C 221.31 171.78 221.53 164.35 222.56 157.37 C 222.88 156.05 223.19 154.72 223.54 153.41 C 224.14 151.74 224.89 150.13 225.59 148.50 C 227.83 143.78 231.77 139.82 236.51 137.60 C 238.13 136.87 239.73 136.12 241.40 135.52 C 243.03 135.13 244.67 134.86 246.32 134.59 Z" />
<path fill="#939498" opacity="1.00" d=" M 284.95 134.01 C 294.96 133.95 304.97 134.03 314.99 133.96 C 317.25 133.98 319.61 133.81 321.76 134.71 C 324.38 134.86 327.02 134.87 329.60 135.47 C 330.60 135.88 331.60 136.31 332.61 136.75 C 333.04 136.83 333.91 136.97 334.34 137.05 C 335.43 137.82 336.54 138.58 337.71 139.23 C 339.40 140.70 340.85 142.42 341.94 144.38 C 342.45 145.73 342.98 147.07 343.50 148.43 C 344.37 152.41 344.46 156.63 343.48 160.61 C 343.14 161.55 342.79 162.50 342.43 163.44 C 340.84 167.22 337.84 170.12 334.57 172.49 C 333.26 172.82 331.94 173.11 330.62 173.41 C 328.99 173.81 327.33 174.11 325.68 174.44 C 317.56 175.80 309.23 174.68 301.03 175.07 C 301.03 185.05 301.04 195.03 301.02 205.01 C 295.66 205.02 290.31 205.01 284.95 205.01 C 284.95 181.34 284.95 157.68 284.95 134.01 M 301.39 142.34 C 301.39 150.66 301.43 158.97 301.39 167.29 C 306.98 167.17 312.57 167.36 318.16 167.24 C 320.99 166.99 324.20 166.47 326.04 164.04 C 329.63 159.87 328.92 153.93 328.16 148.90 C 327.44 147.85 326.72 146.79 326.03 145.73 C 324.73 144.74 323.43 143.77 322.13 142.79 C 315.25 141.88 308.30 142.36 301.39 142.34 Z" />
</g>
</svg>
